<?xml version="1.0" standalone="no"?>
<!DOCTYPE svg PUBLIC "-//W3C//DTD SVG 20010904//EN"
 "http://www.w3.org/TR/2001/REC-SVG-20010904/DTD/svg10.dtd">
<svg version="1.0" xmlns="http://www.w3.org/2000/svg"
 width="1280.000000pt" height="1280.000000pt" viewBox="0 0 1280.000000 1280.000000"
 preserveAspectRatio="xMidYMid meet">
<metadata>
Created by potrace 1.14, written by Peter Selinger 2001-2017
</metadata>
<g transform="translate(0.000000,1280.000000) scale(0.100000,-0.100000)"
fill="#000000" stroke="none">
<path d="M103 9913 c9 -16 201 -408 202 -413 1 -3 51 -107 113 -232 62 -125
112 -232 112 -238 0 -5 5 -10 10 -10 6 0 10 -4 10 -9 0 -9 161 -351 180 -381
18 -29 60 -119 60 -127 0 -5 6 -15 13 -21 6 -7 12 -16 12 -20 1 -7 91 -191
280 -574 52 -104 91 -188 88 -188 -3 0 0 -7 7 -15 11 -13 101 -190 105 -205 0
-3 72 -148 158 -323 86 -176 157 -323 157 -328 0 -5 5 -9 10 -9 6 0 10 -6 10
-13 0 -7 40 -93 89 -192 256 -520 311 -633 311 -643 0 -6 8 -13 17 -16 10 -2
2000 -4 4421 -4 l4404 1 52 111 c29 61 59 127 66 146 7 19 19 42 27 51 7 8 13
20 13 26 0 10 85 196 121 264 10 20 16 39 12 43 -3 3 -1 6 5 6 7 0 12 4 12 9
0 6 18 49 41 98 22 48 47 102 55 120 17 37 79 173 119 258 15 33 40 87 55 120
62 136 79 174 115 250 20 44 48 105 62 135 66 143 123 265 189 405 25 55 47
106 47 113 0 6 4 12 9 12 4 0 8 4 8 9 0 5 17 44 37 87 20 44 37 81 38 84 2 6
45 100 83 180 14 30 27 57 27 60 1 3 18 41 39 85 42 87 69 147 71 155 2 5 25
56 100 216 20 44 43 91 51 106 8 14 14 33 14 42 0 9 5 16 10 16 6 0 10 5 10
12 0 6 11 34 24 62 103 221 200 430 236 511 12 28 26 57 31 65 5 8 12 22 15
30 5 14 23 54 32 73 2 4 -2832 7 -6298 7 -3466 0 -6299 -3 -6297 -7z"/>
<path d="M2280 5524 c0 -1 19 -42 42 -91 23 -48 42 -90 42 -93 1 -3 16 -36 35
-75 42 -87 97 -205 146 -310 20 -44 47 -101 60 -126 13 -26 22 -49 19 -51 -2
-3 2 -11 11 -18 8 -7 15 -16 15 -21 0 -4 28 -66 61 -136 34 -70 73 -153 86
-183 14 -30 50 -107 80 -170 31 -63 66 -140 80 -170 30 -66 79 -169 145 -310
71 -147 139 -293 243 -515 26 -55 59 -125 73 -155 14 -30 25 -58 24 -62 -1 -3
5 -12 13 -18 8 -7 15 -17 15 -23 0 -5 12 -34 26 -64 l26 -53 2958 0 2958 0 13
33 c8 17 13 35 11 40 -1 4 2 7 8 7 5 0 10 5 10 12 0 6 24 61 54 122 29 61 68
143 86 181 18 39 54 116 81 171 27 56 49 107 49 113 0 6 5 11 12 11 6 0 9 3 6
6 -4 3 6 31 22 62 29 58 102 214 147 312 14 30 50 107 81 170 30 63 69 147 87
185 18 39 50 106 71 150 21 44 38 82 39 85 1 3 17 39 37 80 20 41 55 116 78
165 38 81 84 179 159 335 14 30 26 57 27 60 0 3 24 55 53 115 29 61 64 135 78
165 14 30 27 57 28 60 2 3 -1886 5 -4196 5 -2309 0 -4199 0 -4199 -1z"/>
</g>
</svg>
